<?xml version="1.0" standalone="no"?>
<!DOCTYPE svg PUBLIC "-//W3C//DTD SVG 20010904//EN"
 "http://www.w3.org/TR/2001/REC-SVG-20010904/DTD/svg10.dtd">
<svg version="1.0" xmlns="http://www.w3.org/2000/svg"
 width="33.000000pt" height="33.000000pt" viewBox="0 0 33.000000 33.000000"
 preserveAspectRatio="xMidYMid meet">

<g transform="translate(0.000000,33.000000) scale(0.100000,-0.100000)"
fill="#000000" stroke="none">
<path d="M0 290 c0 -33 3 -38 18 -34 16 5 16 4 1 -8 -13 -11 -17 -36 -18 -131
l-2 -117 165 0 166 0 -1 165 0 165 -30 0 c-35 0 -37 -16 -9 -62 11 -18 20 -40
20 -48 -1 -8 -7 -1 -15 17 -23 53 -115 57 -115 4 0 -9 5 -22 12 -29 14 -14 54
-16 62 -3 3 5 -2 8 -11 7 -22 -1 -29 22 -8 30 23 9 54 -23 51 -52 -3 -30 -16
-44 -16 -19 0 18 -1 18 -16 3 -18 -17 -12 -38 11 -38 7 0 21 7 29 16 19 18 21
11 4 -16 -10 -15 -9 -23 6 -39 l19 -21 -81 0 -82 0 0 125 0 125 -80 0 -80 0 0
-40z m35 -10 c-3 -5 -11 -10 -16 -10 -6 0 -7 5 -4 10 3 6 11 10 16 10 6 0 7
-4 4 -10z m40 -90 c3 -5 2 -10 -4 -10 -5 0 -13 5 -16 10 -3 6 -2 10 4 10 5 0
13 -4 16 -10z m240 0 c-3 -5 -11 -10 -16 -10 -6 0 -7 5 -4 10 3 6 11 10 16 10
6 0 7 -4 4 -10z m-95 -144 c0 -2 -7 -7 -16 -10 -8 -3 -12 -2 -9 4 6 10 25 14
25 6z"/>
</g>
</svg>
